General
Complete name                            : ../.././Samples/free_drone_footage_1_hour.mp4
Format                                   : MPEG-4
Format profile                           : Base Media / Version 2
Codec ID                                 : mp42 (isom/mp42)
File size                                : 765 MiB
Duration                                 : 1 h 0 min
Overall bit rate mode                    : Variable
Overall bit rate                         : 1 781 kb/s
Encoded date                             : UTC 2020-01-30 00:45:20
Tagged date                              : UTC 2020-01-30 00:45:20
Writing application                      : Google
gsst                                     : 0
gstd                                     : 3603551

Video
ID                                       : 1
Format                                   : AVC
Format/Info                              : Advanced Video Codec
Format profile                           : High@L3.1
Format settings                          : CABAC / 3 Ref Frames
Format settings, CABAC                   : Yes
Format settings, ReFrames                : 3 frames
Codec ID                                 : avc1
Codec ID/Info                            : Advanced Video Coding
Duration                                 : 1 h 0 min
Bit rate                                 : 1 649 kb/s
Width                                    : 1 280 pixels
Height                                   : 720 pixels
Display aspect ratio                     : 16:9
Frame rate mode                          : Constant
Frame rate                               : 30.000 FPS
Color space                              : YUV
Chroma subsampling                       : 4:2:0
Bit depth                                : 8 bits
Scan type                                : Progressive
Bits/(Pixel*Frame)                       : 0.060
Stream size                              : 709 MiB (93%)
Title                                    : ISO Media file produced by Google Inc. Created on: 01/29/2020.
Encoded date                             : UTC 2020-01-30 00:45:20
Tagged date                              : UTC 2020-01-30 00:45:20
Color range                              : Limited
Color primaries                          : BT.709
Transfer characteristics                 : BT.709
Matrix coefficients                      : BT.709

Audio
ID                                       : 2
Format                                   : AAC
Format/Info                              : Advanced Audio Codec
Format profile                           : LC
Codec ID                                 : mp4a-40-2
Duration                                 : 1 h 0 min
Bit rate mode                            : Variable
Bit rate                                 : 128 kb/s
Channel(s)                               : 2 channels
Channel positions                        : Front: L R
Sampling rate                            : 44.1 kHz
Frame rate                               : 43.066 FPS (1024 SPF)
Compression mode                         : Lossy
Stream size                              : 55.0 MiB (7%)
Title                                    : ISO Media file produced by Google Inc. Created on: 01/29/2020.
Language                                 : English
Encoded date                             : UTC 2020-01-30 00:45:20
Tagged date                              : UTC 2020-01-30 00:45:20


General
Complete name                            : ../.././Samples/free_drone_footage_1_hour.mp4
Format                                   : MPEG-4
Format profile                           : Base Media / Version 2
Codec ID                                 : mp42 (isom/mp42)
File size                                : 765 MiB
Duration                                 : 1 h 0 min
Overall bit rate mode                    : Variable
Overall bit rate                         : 1 781 kb/s
Encoded date                             : UTC 2020-01-30 00:45:20
Tagged date                              : UTC 2020-01-30 00:45:20
Writing application                      : Google
gsst                                     : 0
gstd                                     : 3603551

Video
ID                                       : 1
Format                                   : AVC
Format/Info                              : Advanced Video Codec
Format profile                           : High@L3.1
Format settings                          : CABAC / 3 Ref Frames
Format settings, CABAC                   : Yes
Format settings, ReFrames                : 3 frames
Codec ID                                 : avc1
Codec ID/Info                            : Advanced Video Coding
Duration                                 : 1 h 0 min
Bit rate                                 : 1 649 kb/s
Width                                    : 1 280 pixels
Height                                   : 720 pixels
Display aspect ratio                     : 16:9
Frame rate mode                          : Constant
Frame rate                               : 30.000 FPS
Color space                              : YUV
Chroma subsampling                       : 4:2:0
Bit depth                                : 8 bits
Scan type                                : Progressive
Bits/(Pixel*Frame)                       : 0.060
Stream size                              : 709 MiB (93%)
Title                                    : ISO Media file produced by Google Inc. Created on: 01/29/2020.
Encoded date                             : UTC 2020-01-30 00:45:20
Tagged date                              : UTC 2020-01-30 00:45:20
Color range                              : Limited
Color primaries                          : BT.709
Transfer characteristics                 : BT.709
Matrix coefficients                      : BT.709

Audio
ID                                       : 2
Format                                   : AAC
Format/Info                              : Advanced Audio Codec
Format profile                           : LC
Codec ID                                 : mp4a-40-2
Duration                                 : 1 h 0 min
Bit rate mode                            : Variable
Bit rate                                 : 128 kb/s
Channel(s)                               : 2 channels
Channel positions                        : Front: L R
Sampling rate                            : 44.1 kHz
Frame rate                               : 43.066 FPS (1024 SPF)
Compression mode                         : Lossy
Stream size                              : 55.0 MiB (7%)
Title                                    : ISO Media file produced by Google Inc. Created on: 01/29/2020.
Language                                 : English
Encoded date                             : UTC 2020-01-30 00:45:20
Tagged date                              : UTC 2020-01-30 00:45:20


